<?xml version="1.0" encoding="UTF-8"?><svg id="a" xmlns="http://www.w3.org/2000/svg" xmlns:xlink="http://www.w3.org/1999/xlink" viewBox="0 0 282.966 159"><defs><style>.e{fill:#997c70;stroke-width:6px;}.e,.f,.g,.h{fill-rule:evenodd;}.e,.i,.h{stroke:#17171d;}.f,.g,.h{fill:#fff;}.j{clip-path:url(#b);}.i,.k{fill:none;}.i,.g,.h{stroke-linecap:round;stroke-linejoin:round;stroke-width:3px;}.l{fill:#17171d;}.g{stroke:#252429;}.m{mask:url(#c);}</style><clipPath id="b"><rect class="k" y="1.5" width="280" height="157.5"/></clipPath><mask id="c" x="81.031" y="30.5" width="201.935" height="110.983" maskUnits="userSpaceOnUse"><g id="d"><path class="f" d="m119.139,33.67c1.704-.298,26.048-3.496,61.254,38.26,33.255,39.442,86.743,34.905,96.572,33.609.326-.044.571.555.314.759l-14.498,11.557c-.228.182-.188.54.077.663,1.996.933,8.965,4.169,16.855,7.598.327.141.345.595.008.712-7.507,2.598-60.039,19.928-89.231,6.781-31.489-14.184-45.229-29.22-62.86-43.852-17.362-14.408-27.591-21.706-40.63-25.157,0,0,24.99-23.683,30.843-29.625.818-.83,1.288-1.304,1.296-1.306Z"/></g></mask></defs><g class="j"><path class="f" d="m5.456,1.5s-.304,2.704-.698,7.143c-1.404,15.812-3.951,53.628,2.025,69.556,7.654,20.4,19.88,21.3,19.88,21.3,0,0,60.634-41,60.335-39.7s-.994-5-7.952-16.7c-6.958-11.7-7.016-35.9-7.016-41.6"/><path class="i" d="m5.32,1.5S-.821,57.799,6.879,78.199c7.7,20.4,23.763,22.861,23.763,22.861,0,0,59.041-33.119,58.001-38.925-1.04-5.806-4.004-11.298-11.004-22.998-7-11.7-5.069-31.937-5.069-37.637"/><path class="h" d="m88.092,61.266c-3.008-3.474-9.1-11.2-38.4,6s-25.9,30.1-22.5,32.4c3.4,2.3,11.1,5.6,41.099-6.6,30-12.2,22.808-28.325,19.8-31.8Z"/><g class="m"><path class="e" d="m119.139,33.67c1.704-.298,26.048-3.496,61.254,38.26,33.255,39.442,86.743,34.905,96.572,33.609.326-.044.571.555.314.759l-14.498,11.557c-.228.182-.188.54.077.663,1.996.933,8.965,4.169,16.855,7.598.327.141.345.595.008.712-7.507,2.598-60.039,19.928-89.231,6.781-31.489-14.184-45.229-29.22-62.86-43.852-17.362-14.408-27.591-21.706-40.63-25.157,0,0,24.99-23.683,30.843-29.625.818-.83,1.288-1.304,1.296-1.306Z"/></g><path class="f" d="m127.091,46.119c-1.695,2.486-4.703,6.715-9.333,11.844-8.312,7.762-.78,9.278,2.965,6.184,2.148-1.672,4.413-3.517,4.413-3.517l5.077,5.117s-1.753,2.572-3.299,4.657c-4.629,5.13,1.315,6.941,4.866,3.211,1.718-1.967,9.226-10.028,12.381-14.659,2.79-2.616-.473-7.621-4.892-3.354-1.972,1.415-5.662,4.798-5.662,4.798,0,0-4.224-4.154-4.193-4.384.034-.605,1.255-1.656,1.842-2.888,3.57-8.749-1.886-10.352-4.165-7.008Z"/><path class="f" d="m150.596,65.407c2.963-2.406,4.991-2.12,6.261-1.377.555.307.81,1.829.902,3.223-1.376,8.285-11.019,20.319-12.052,20.954-3.69,2.489-7.145.147-4.042-2.939,1.686-1.966,3.325-3.704,3.325-3.704l-4.609-2.728c-7.149,5.69-9.18,1.045-5.763-1.266,3.801-2.797,12.002-8.977,15.978-12.163h0Zm-5.892,8.799l4.416,2.971s5.123-7.825,3.229-7.609l-7.645,4.638Z"/><path class="f" d="m172.852,82.543c1.436-1.499,1.937-6.126-2.965-7.525-6.683-2.952-14.245,7.681-14.245,7.681,0,0-3.653,5.154-3.641,9.793-.085,4.43,3.761,6.176,4.467,6.608,4.964.655,4.779-2.933,4.073-3.363-.929-.478-2.291-.903-2.95-2.223-1.127-2.222.818-5.697,2.079-7.469,2.376-2.865,7.293-8.465,9.751-5.446.808,3.291,2.648,2.775,3.431,1.944Z"/><path class="f" d="m177.217,84.265c-2.783,3.049-3.012,7.478-9.006,12.968-1.449,1.348-4.535,3.627-4.933,3.968-3.006,2.343-.527,5.638,5.52,1.902,1.433-.832,3.818-3.54,3.818-3.54l1.658.534s-1.355,6.691-2.208,9.435c-.792,2.662,3.011,6.092,5.293,1.196.602-1.76,1.042-4.307,1.242-7.704,0,0,.233-2.449-.342-3.04,0,0,7.181-2.699,8.516-4.4,1.398-1.782,1.123-3.583-4.23-2.058-5.351,1.525-6.273,2.37-6.273,2.37,0,0,2.78-3.709,4.096-6.875,1.825-3.154-.815-7.237-3.151-4.755h0Z"/><path class="f" d="m199.427,101.795c-2.407.9-4.849,3.525-6.843,8.263-2.918,7.099-1.83,12.423,3.477,13.851,5.309,1.428,5.752-2.667,5.35-2.989-.322-.26-.226-.721-2.597-.872-2.374-.151-3.5-1.73-3.382-5.411.102-2.48,1.482-6.767,4.035-8.359.76-.47,1.275-.46,1.566-.496,1.163-.146,1.855.815,1.953,1.026,1.721,3,3.144,1.177,3.052-1.056-.656-3.358-2.816-4.957-6.611-3.957Z"/><path class="f" d="m210.364,107.488c1.171-2.666,4.834-3.478,3.123,2.893-.537,4.373-4.181,11.653-3.919,12.597s4.945,1.901,6.271,2.031c1.324.132,3.215,1.595,2.218,2.532-.919,1.002-2.067.619-2.357.654s-11.18-1.445-10.684-3.502c.498-2.056.868-2.939,1.963-6.33,1.096-3.392,2.213-8.209,3.385-10.875h0Z"/><path class="f" d="m222.865,110.085c.655-2.014,3.141-2.305,3.366.275.155,1.992-1.952,9.389-1.836,12.95.251,1.533,1.767,2.473,3.015,1.731,1.636-1.234,2.832-5.619,3.756-9.154.316-1.749.405-3.156.824-4.024,1.676-2.803,3.732-1.033,3.474,2.497-.598,3.794-2.095,9.684-3.451,11.407-1.292,1.641-2.825,3.757-5.477,3.249-.684-.143-6.2-1.73-5.469-8.22.924-6.737,1.142-8.698,1.798-10.711Z"/><path class="f" d="m241.63,111.695c4.054-.49,6.741-.074,8.305,1.441.79,1.163.666,3.328-.344,4.784-.964,1.229-2.041,2.099-2.041,2.099,1.806,1.042,2.34,3.552,1.587,6.183-.752,2.631-4.125,3.906-9.097,3.397-1.642-.246-3.188-.948-3.029-1.487.401-1.012,2.048-14.475,2.048-14.475.208-.767.174-1.725,2.571-1.942Zm.375,2.697l-.088,4.456s4.57.188,5.049-2.092c.477-2.282-2.515-2.141-4.961-2.364Zm-.838,7.585s-.972,5.083-.924,4.855c.112-.31,6.286,1.114,6.407-2.385.121-3.497-5.483-2.47-5.483-2.47Z"/><path class="l" d="m90,61.5l-42,40.362,3.379,1.505,41.121-39.867-2.5-2Z"/><path class="g" d="m75,74.158c.7,1.7,7.5,8.6,3.8,9.6-3.7,1-2.4,9.5,4.9,7.6,7.3-1.9,9.6-11.5,2.6-15.5-7-4-11.3-1.7-11.3-1.7Z"/><path class="g" d="m62,83.158c.7,1.7,7.5,8.6,3.8,9.6-3.7,1-2.4,9.5,4.9,7.6,7.3-1.9,9.6-11.5,2.6-15.5-7-4-11.3-1.7-11.3-1.7Z"/><path class="g" d="m49,92.158c.7,1.7,7.5,8.6,3.8,9.6-3.7,1-2.4,9.5,4.9,7.6,7.3-1.9,9.6-11.5,2.6-15.5-7-4-11.3-1.7-11.3-1.7Z"/></g></svg>