<svg width="149" height="61" viewBox="0 0 149 61" fill="none" xmlns="http://www.w3.org/2000/svg">
<path d="M2 13C0.895431 13 0 13.8954 0 15C0 16.1046 0.895431 17 2 17V13ZM148.414 16.4142C149.195 15.6332 149.195 14.3668 148.414 13.5858L135.686 0.857864C134.905 0.0768158 133.639 0.0768158 132.858 0.857864C132.077 1.63891 132.077 2.90524 132.858 3.68629L144.172 15L132.858 26.3137C132.077 27.0948 132.077 28.3611 132.858 29.1421C133.639 29.9232 134.905 29.9232 135.686 29.1421L148.414 16.4142ZM2 17H147V13H2V17Z" fill="#997C70"/>
<path d="M0.585786 44.5858C-0.195262 45.3668 -0.195262 46.6332 0.585786 47.4142L13.3137 60.1421C14.0948 60.9232 15.3611 60.9232 16.1421 60.1421C16.9232 59.3611 16.9232 58.0948 16.1421 57.3137L4.82843 46L16.1421 34.6863C16.9232 33.9052 16.9232 32.6389 16.1421 31.8579C15.3611 31.0768 14.0948 31.0768 13.3137 31.8579L0.585786 44.5858ZM147 48C148.105 48 149 47.1046 149 46C149 44.8954 148.105 44 147 44V48ZM2 48H147V44H2V48Z" fill="#997C70"/>
<path d="M66.6506 24.3509C67.5455 24.3509 68.3658 24.4834 69.1115 24.7486C69.8655 25.0054 70.545 25.3452 71.1499 25.7678C71.763 26.1821 72.3016 26.6212 72.7656 27.0852C73.0639 27.3587 73.3374 27.6404 73.5859 27.9304C73.8428 28.2204 74.0831 28.5021 74.3068 28.7756C74.5057 28.5021 74.717 28.2328 74.9407 27.9677C75.1644 27.7025 75.4503 27.4084 75.7983 27.0852C76.4943 26.3892 77.3519 25.7595 78.3711 25.196C79.3986 24.6326 80.5959 24.3509 81.9631 24.3509C83.2225 24.3509 84.366 24.6574 85.3935 25.2706C86.4292 25.8755 87.2495 26.6958 87.8544 27.7315C88.4676 28.759 88.7741 29.9025 88.7741 31.1619C88.7741 32.1148 88.596 33.0097 88.2397 33.8466C87.8917 34.6752 87.407 35.4044 86.7855 36.0341C86.1641 36.6555 85.439 37.1444 84.6104 37.5007C83.7901 37.8487 82.9077 38.0227 81.9631 38.0227C81.0516 38.0227 80.2147 37.8943 79.4524 37.6374C78.6984 37.3723 78.0148 37.0367 77.4016 36.6307C76.7968 36.2164 76.2623 35.7855 75.7983 35.3381C75.5 35.0398 75.2266 34.7456 74.978 34.4556C74.7294 34.1573 74.5057 33.8714 74.3068 33.598C74.0831 33.8714 73.8428 34.1573 73.5859 34.4556C73.3374 34.7456 73.0639 35.0398 72.7656 35.3381C72.3016 35.7855 71.763 36.2164 71.1499 36.6307C70.545 37.0367 69.8655 37.3723 69.1115 37.6374C68.3658 37.8943 67.5455 38.0227 66.6506 38.0227C65.3745 38.0227 64.2186 37.7161 63.1829 37.103C62.1471 36.4898 61.3227 35.6654 60.7095 34.6296C60.0964 33.5939 59.7898 32.438 59.7898 31.1619C59.7898 30.2173 59.9638 29.3349 60.3118 28.5146C60.6681 27.686 61.157 26.9609 61.7784 26.3395C62.4081 25.718 63.1373 25.2333 63.9659 24.8853C64.8028 24.529 65.6977 24.3509 66.6506 24.3509ZM62.6236 31.1619C62.6236 31.9077 62.8017 32.5871 63.158 33.2003C63.5226 33.8052 64.0073 34.2899 64.6122 34.6545C65.2254 35.0108 65.9048 35.1889 66.6506 35.1889C67.4709 35.1889 68.2208 35.0025 68.9002 34.6296C69.5797 34.2567 70.2053 33.7969 70.777 33.25C71.1499 32.8771 71.4772 32.5167 71.7589 32.1687C72.0406 31.8207 72.2933 31.4851 72.517 31.1619C72.2933 30.8636 72.0447 30.5446 71.7713 30.2049C71.5062 29.8569 71.1747 29.4964 70.777 29.1236C70.2301 28.5767 69.6087 28.1168 68.9126 27.744C68.2249 27.3711 67.4709 27.1847 66.6506 27.1847C65.9048 27.1847 65.2254 27.367 64.6122 27.7315C64.0073 28.0878 63.5226 28.5684 63.158 29.1733C62.8017 29.7699 62.6236 30.4328 62.6236 31.1619ZM85.9403 31.1619C85.9403 30.4328 85.7581 29.7699 85.3935 29.1733C85.0372 28.5684 84.5566 28.0878 83.9517 27.7315C83.3551 27.367 82.6922 27.1847 81.9631 27.1847C81.3996 27.1847 80.8693 27.2717 80.3722 27.4457C79.875 27.6114 79.411 27.8434 78.9801 28.1417C78.5492 28.4317 78.1515 28.759 77.7869 29.1236C77.3395 29.5462 76.9666 29.9563 76.6683 30.354C76.3783 30.7435 76.1712 31.0128 76.0469 31.1619C76.2706 31.4851 76.5233 31.8207 76.805 32.1687C77.0868 32.5167 77.4141 32.8771 77.7869 33.25C78.3587 33.7969 78.9843 34.2567 79.6637 34.6296C80.3514 35.0025 81.1179 35.1889 81.9631 35.1889C82.6922 35.1889 83.3551 35.0108 83.9517 34.6545C84.5566 34.2899 85.0372 33.8052 85.3935 33.2003C85.7581 32.5871 85.9403 31.9077 85.9403 31.1619Z" fill="#685752"/>
</svg>
