<svg width="74" height="17" viewBox="0 0 74 17" fill="none" xmlns="http://www.w3.org/2000/svg">
<mask id="mask0_1_3" style="mask-type:alpha" maskUnits="userSpaceOnUse" x="2" y="4" width="70" height="10">
<path d="M6.85335 13.0896C5.88535 13.0896 5.06135 12.9096 4.38135 12.5496C3.70935 12.1896 3.19735 11.6856 2.84535 11.0376C2.49335 10.3896 2.31735 9.63361 2.31735 8.76961C2.31735 8.09761 2.42135 7.49361 2.62935 6.95761C2.84535 6.41361 3.15335 5.94961 3.55335 5.56561C3.95335 5.17361 4.44135 4.87761 5.01735 4.67761C5.60135 4.46961 6.26135 4.36561 6.99735 4.36561C7.39735 4.36561 7.80535 4.40561 8.22135 4.48561C8.63735 4.55761 9.04535 4.69761 9.44535 4.90561C9.65335 5.00161 9.79335 5.13761 9.86535 5.31361C9.94535 5.48161 9.96935 5.66161 9.93735 5.85361C9.91335 6.03761 9.84535 6.20961 9.73335 6.36961C9.62935 6.52161 9.48535 6.62561 9.30135 6.68161C9.11735 6.72961 8.90935 6.70161 8.67735 6.59761C8.43735 6.48561 8.17735 6.40161 7.89735 6.34561C7.61735 6.28161 7.32135 6.24961 7.00935 6.24961C6.47335 6.24961 6.02535 6.34561 5.66535 6.53761C5.31335 6.72961 5.04935 7.01361 4.87335 7.38961C4.69735 7.76561 4.60935 8.22561 4.60935 8.76961C4.60935 9.58561 4.80935 10.2016 5.20935 10.6176C5.60935 11.0336 6.20135 11.2416 6.98535 11.2416C7.22535 11.2416 7.48535 11.2176 7.76535 11.1696C8.05335 11.1216 8.34135 11.0536 8.62935 10.9656L8.22135 11.7936V9.74161H7.38135C7.10935 9.74161 6.89735 9.67361 6.74535 9.53761C6.60135 9.40161 6.52935 9.20961 6.52935 8.96161C6.52935 8.71361 6.60135 8.52561 6.74535 8.39761C6.89735 8.26161 7.10935 8.19361 7.38135 8.19361H9.15735C9.43735 8.19361 9.64935 8.26961 9.79335 8.42161C9.94535 8.56561 10.0213 8.77761 10.0213 9.05761V11.7096C10.0213 11.9496 9.96935 12.1536 9.86535 12.3216C9.76935 12.4896 9.61335 12.6096 9.39735 12.6816C9.02135 12.8096 8.61335 12.9096 8.17335 12.9816C7.73335 13.0536 7.29335 13.0896 6.85335 13.0896ZM13.4062 13.0896C12.9502 13.0896 12.5462 13.0056 12.1942 12.8376C11.8502 12.6696 11.5782 12.4416 11.3782 12.1536C11.1862 11.8576 11.0902 11.5216 11.0902 11.1456C11.0902 10.7136 11.2022 10.3736 11.4262 10.1256C11.6502 9.87761 12.0102 9.70161 12.5062 9.59761C13.0022 9.48561 13.6622 9.42961 14.4862 9.42961H15.1462V10.4376H14.4862C14.1742 10.4376 13.9142 10.4616 13.7062 10.5096C13.5062 10.5496 13.3582 10.6176 13.2622 10.7136C13.1662 10.8016 13.1182 10.9176 13.1182 11.0616C13.1182 11.2456 13.1822 11.3976 13.3102 11.5176C13.4462 11.6376 13.6382 11.6976 13.8862 11.6976C14.0862 11.6976 14.2622 11.6536 14.4142 11.5656C14.5742 11.4776 14.7022 11.3576 14.7982 11.2056C14.8942 11.0456 14.9422 10.8616 14.9422 10.6536V9.26161C14.9422 8.97361 14.8662 8.76961 14.7142 8.64961C14.5702 8.52961 14.3182 8.46961 13.9582 8.46961C13.7662 8.46961 13.5502 8.49361 13.3102 8.54161C13.0702 8.58161 12.8022 8.65761 12.5062 8.76961C12.2902 8.84961 12.1062 8.86161 11.9542 8.80561C11.8022 8.74961 11.6822 8.65361 11.5942 8.51761C11.5142 8.38161 11.4742 8.23361 11.4742 8.07361C11.4822 7.91361 11.5342 7.76161 11.6302 7.61761C11.7342 7.47361 11.8902 7.36161 12.0982 7.28161C12.4822 7.13761 12.8342 7.04161 13.1542 6.99361C13.4822 6.94561 13.7822 6.92161 14.0542 6.92161C14.7102 6.92161 15.2502 7.01761 15.6742 7.20961C16.1062 7.39361 16.4262 7.68161 16.6342 8.07361C16.8502 8.45761 16.9582 8.95361 16.9582 9.56161V11.9856C16.9582 12.3376 16.8742 12.6056 16.7062 12.7896C16.5382 12.9736 16.2942 13.0656 15.9742 13.0656C15.6462 13.0656 15.3942 12.9736 15.2182 12.7896C15.0502 12.6056 14.9662 12.3376 14.9662 11.9856V11.6736L15.0382 11.8416C14.9982 12.0976 14.9062 12.3176 14.7622 12.5016C14.6182 12.6856 14.4302 12.8296 14.1982 12.9336C13.9662 13.0376 13.7022 13.0896 13.4062 13.0896ZM19.2545 13.0656C18.9185 13.0656 18.6585 12.9736 18.4745 12.7896C18.2905 12.6056 18.1985 12.3376 18.1985 11.9856V8.01361C18.1985 7.66961 18.2865 7.40561 18.4625 7.22161C18.6465 7.03761 18.9065 6.94561 19.2425 6.94561C19.5785 6.94561 19.8345 7.03761 20.0105 7.22161C20.1865 7.40561 20.2745 7.66961 20.2745 8.01361V8.67361L20.1425 8.08561C20.3105 7.73361 20.5585 7.45361 20.8865 7.24561C21.2225 7.02961 21.6185 6.92161 22.0745 6.92161C22.5065 6.92161 22.8745 7.02561 23.1785 7.23361C23.4905 7.44161 23.7145 7.75761 23.8505 8.18161H23.6825C23.8665 7.78961 24.1425 7.48161 24.5105 7.25761C24.8785 7.03361 25.2865 6.92161 25.7345 6.92161C26.1985 6.92161 26.5785 7.01361 26.8745 7.19761C27.1705 7.37361 27.3905 7.65361 27.5345 8.03761C27.6865 8.41361 27.7625 8.88961 27.7625 9.46561V11.9856C27.7625 12.3376 27.6665 12.6056 27.4745 12.7896C27.2905 12.9736 27.0265 13.0656 26.6825 13.0656C26.3465 13.0656 26.0865 12.9736 25.9025 12.7896C25.7185 12.6056 25.6265 12.3376 25.6265 11.9856V9.52561C25.6265 9.18161 25.5745 8.93361 25.4705 8.78161C25.3665 8.62961 25.1945 8.55361 24.9545 8.55361C24.6585 8.55361 24.4305 8.65761 24.2705 8.86561C24.1185 9.07361 24.0425 9.36961 24.0425 9.75361V11.9856C24.0425 12.3376 23.9505 12.6056 23.7665 12.7896C23.5825 12.9736 23.3185 13.0656 22.9745 13.0656C22.6305 13.0656 22.3665 12.9736 22.1825 12.7896C21.9985 12.6056 21.9065 12.3376 21.9065 11.9856V9.52561C21.9065 9.18161 21.8545 8.93361 21.7505 8.78161C21.6465 8.62961 21.4745 8.55361 21.2345 8.55361C20.9465 8.55361 20.7225 8.65761 20.5625 8.86561C20.4105 9.07361 20.3345 9.36961 20.3345 9.75361V11.9856C20.3345 12.7056 19.9745 13.0656 19.2545 13.0656ZM32.2186 13.0896C31.4986 13.0896 30.8746 12.9656 30.3466 12.7176C29.8266 12.4616 29.4266 12.1016 29.1466 11.6376C28.8666 11.1736 28.7266 10.6256 28.7266 9.99361C28.7266 9.38561 28.8586 8.85361 29.1226 8.39761C29.3946 7.93361 29.7626 7.57361 30.2266 7.31761C30.6986 7.05361 31.2346 6.92161 31.8346 6.92161C32.2746 6.92161 32.6746 6.99361 33.0346 7.13761C33.3946 7.27361 33.7026 7.47761 33.9586 7.74961C34.2146 8.01361 34.4066 8.33361 34.5346 8.70961C34.6706 9.08561 34.7386 9.50561 34.7386 9.96961C34.7386 10.1296 34.6946 10.2496 34.6066 10.3296C34.5186 10.4016 34.3786 10.4376 34.1866 10.4376H30.5146V9.42961H33.1786L32.9866 9.58561C32.9866 9.28961 32.9466 9.04961 32.8666 8.86561C32.7866 8.68161 32.6666 8.54161 32.5066 8.44561C32.3546 8.34961 32.1626 8.30161 31.9306 8.30161C31.6826 8.30161 31.4666 8.36161 31.2826 8.48161C31.1066 8.59361 30.9706 8.76161 30.8746 8.98561C30.7786 9.20961 30.7306 9.48961 30.7306 9.82561V9.93361C30.7306 10.5016 30.8546 10.9096 31.1026 11.1576C31.3586 11.3976 31.7506 11.5176 32.2786 11.5176C32.4546 11.5176 32.6546 11.4976 32.8786 11.4576C33.1106 11.4096 33.3306 11.3456 33.5386 11.2656C33.7466 11.1856 33.9266 11.1736 34.0786 11.2296C34.2306 11.2776 34.3466 11.3656 34.4266 11.4936C34.5146 11.6136 34.5626 11.7536 34.5706 11.9136C34.5786 12.0656 34.5426 12.2176 34.4626 12.3696C34.3826 12.5136 34.2506 12.6256 34.0666 12.7056C33.7866 12.8336 33.4866 12.9296 33.1666 12.9936C32.8546 13.0576 32.5386 13.0896 32.2186 13.0896ZM40.1229 13.0896C39.1549 13.0896 38.3309 12.9096 37.6509 12.5496C36.9789 12.1896 36.4669 11.6856 36.1149 11.0376C35.7629 10.3896 35.5869 9.63361 35.5869 8.76961C35.5869 8.09761 35.6909 7.49361 35.8989 6.95761C36.1149 6.41361 36.4229 5.94961 36.8229 5.56561C37.2229 5.17361 37.7109 4.87761 38.2869 4.67761C38.8709 4.46961 39.5309 4.36561 40.2669 4.36561C40.6669 4.36561 41.0749 4.40561 41.4909 4.48561C41.9069 4.55761 42.3149 4.69761 42.7149 4.90561C42.9229 5.00161 43.0629 5.13761 43.1349 5.31361C43.2149 5.48161 43.2389 5.66161 43.2069 5.85361C43.1829 6.03761 43.1149 6.20961 43.0029 6.36961C42.8989 6.52161 42.7549 6.62561 42.5709 6.68161C42.3869 6.72961 42.1789 6.70161 41.9469 6.59761C41.7069 6.48561 41.4469 6.40161 41.1669 6.34561C40.8869 6.28161 40.5909 6.24961 40.2789 6.24961C39.7429 6.24961 39.2949 6.34561 38.9349 6.53761C38.5829 6.72961 38.3189 7.01361 38.1429 7.38961C37.9669 7.76561 37.8789 8.22561 37.8789 8.76961C37.8789 9.58561 38.0789 10.2016 38.4789 10.6176C38.8789 11.0336 39.4709 11.2416 40.2549 11.2416C40.4949 11.2416 40.7549 11.2176 41.0349 11.1696C41.3229 11.1216 41.6109 11.0536 41.8989 10.9656L41.4909 11.7936V9.74161H40.6509C40.3789 9.74161 40.1669 9.67361 40.0149 9.53761C39.8709 9.40161 39.7989 9.20961 39.7989 8.96161C39.7989 8.71361 39.8709 8.52561 40.0149 8.39761C40.1669 8.26161 40.3789 8.19361 40.6509 8.19361H42.4269C42.7069 8.19361 42.9189 8.26961 43.0629 8.42161C43.2149 8.56561 43.2909 8.77761 43.2909 9.05761V11.7096C43.2909 11.9496 43.2389 12.1536 43.1349 12.3216C43.0389 12.4896 42.8829 12.6096 42.6669 12.6816C42.2909 12.8096 41.8829 12.9096 41.4429 12.9816C41.0029 13.0536 40.5629 13.0896 40.1229 13.0896ZM46.8317 13.0896C46.3197 13.0896 45.8997 12.9976 45.5717 12.8136C45.2437 12.6216 44.9957 12.3376 44.8277 11.9616C44.6677 11.5856 44.5877 11.1096 44.5877 10.5336V8.01361C44.5877 7.66161 44.6797 7.39761 44.8637 7.22161C45.0477 7.03761 45.3117 6.94561 45.6557 6.94561C45.9997 6.94561 46.2637 7.03761 46.4477 7.22161C46.6317 7.39761 46.7237 7.66161 46.7237 8.01361V10.5936C46.7237 10.8816 46.7837 11.0976 46.9037 11.2416C47.0237 11.3856 47.2117 11.4576 47.4677 11.4576C47.7557 11.4576 47.9917 11.3536 48.1757 11.1456C48.3597 10.9376 48.4517 10.6616 48.4517 10.3176V8.01361C48.4517 7.66161 48.5437 7.39761 48.7277 7.22161C48.9117 7.03761 49.1757 6.94561 49.5197 6.94561C49.8637 6.94561 50.1277 7.03761 50.3117 7.22161C50.4957 7.39761 50.5877 7.66161 50.5877 8.01361V11.9856C50.5877 12.7056 50.2437 13.0656 49.5557 13.0656C49.2197 13.0656 48.9597 12.9736 48.7757 12.7896C48.5917 12.6056 48.4997 12.3376 48.4997 11.9856V11.2896L48.6917 11.8776C48.5157 12.2696 48.2677 12.5696 47.9477 12.7776C47.6357 12.9856 47.2637 13.0896 46.8317 13.0896ZM52.8868 13.0656C52.5508 13.0656 52.2908 12.9656 52.1068 12.7656C51.9228 12.5656 51.8308 12.2776 51.8308 11.9016V8.10961C51.8308 7.73361 51.9228 7.44561 52.1068 7.24561C52.2908 7.04561 52.5508 6.94561 52.8868 6.94561C53.2308 6.94561 53.4948 7.04561 53.6788 7.24561C53.8708 7.44561 53.9668 7.73361 53.9668 8.10961V11.9016C53.9668 12.2776 53.8748 12.5656 53.6908 12.7656C53.5068 12.9656 53.2388 13.0656 52.8868 13.0656ZM52.8868 6.09361C52.5108 6.09361 52.2188 6.00561 52.0108 5.82961C51.8108 5.65361 51.7108 5.39761 51.7108 5.06161C51.7108 4.73361 51.8108 4.48161 52.0108 4.30561C52.2188 4.12961 52.5108 4.04161 52.8868 4.04161C53.2788 4.04161 53.5748 4.12961 53.7748 4.30561C53.9748 4.48161 54.0748 4.73361 54.0748 5.06161C54.0748 5.39761 53.9748 5.65361 53.7748 5.82961C53.5748 6.00561 53.2788 6.09361 52.8868 6.09361ZM57.4498 13.0896C56.6818 13.0896 56.1138 12.8856 55.7458 12.4776C55.3858 12.0616 55.2058 11.4376 55.2058 10.6056V5.46961C55.2058 5.11761 55.2978 4.84961 55.4818 4.66561C55.6658 4.48161 55.9258 4.38961 56.2618 4.38961C56.6058 4.38961 56.8698 4.48161 57.0538 4.66561C57.2458 4.84961 57.3418 5.11761 57.3418 5.46961V10.5336C57.3418 10.8296 57.3978 11.0456 57.5098 11.1816C57.6298 11.3176 57.7818 11.3856 57.9658 11.3856C58.0218 11.3856 58.0778 11.3816 58.1338 11.3736C58.1978 11.3576 58.2658 11.3456 58.3378 11.3376C58.4738 11.3376 58.5738 11.3896 58.6378 11.4936C58.7098 11.5976 58.7458 11.8096 58.7458 12.1296C58.7458 12.4096 58.6898 12.6216 58.5778 12.7656C58.4658 12.9016 58.2938 12.9896 58.0618 13.0296C57.9978 13.0376 57.9058 13.0496 57.7858 13.0656C57.6658 13.0816 57.5538 13.0896 57.4498 13.0896ZM61.623 13.0896C61.119 13.0896 60.671 12.9656 60.279 12.7176C59.895 12.4696 59.591 12.1136 59.367 11.6496C59.151 11.1856 59.043 10.6376 59.043 10.0056C59.043 9.35761 59.151 8.80561 59.367 8.34961C59.591 7.89361 59.895 7.54161 60.279 7.29361C60.671 7.04561 61.119 6.92161 61.623 6.92161C62.063 6.92161 62.459 7.02561 62.811 7.23361C63.163 7.44161 63.399 7.70961 63.519 8.03761H63.387V5.46961C63.387 5.11761 63.479 4.84961 63.663 4.66561C63.847 4.48161 64.111 4.38961 64.455 4.38961C64.791 4.38961 65.051 4.48161 65.235 4.66561C65.427 4.84961 65.523 5.11761 65.523 5.46961V11.9856C65.523 12.3376 65.431 12.6056 65.247 12.7896C65.071 12.9736 64.811 13.0656 64.467 13.0656C64.131 13.0656 63.871 12.9736 63.687 12.7896C63.503 12.6056 63.411 12.3376 63.411 11.9856V11.3016L63.543 11.8896C63.431 12.2496 63.195 12.5416 62.835 12.7656C62.483 12.9816 62.079 13.0896 61.623 13.0896ZM62.307 11.5176C62.523 11.5176 62.715 11.4656 62.883 11.3616C63.051 11.2496 63.179 11.0856 63.267 10.8696C63.363 10.6456 63.411 10.3576 63.411 10.0056C63.411 9.46961 63.307 9.08561 63.099 8.85361C62.891 8.61361 62.627 8.49361 62.307 8.49361C62.091 8.49361 61.899 8.54561 61.731 8.64961C61.563 8.75361 61.431 8.91761 61.335 9.14161C61.239 9.35761 61.191 9.64561 61.191 10.0056C61.191 10.5336 61.295 10.9176 61.503 11.1576C61.711 11.3976 61.979 11.5176 62.307 11.5176ZM69.1124 13.0896C68.7604 13.0896 68.4004 13.0616 68.0324 13.0056C67.6724 12.9576 67.3444 12.8656 67.0484 12.7296C66.8484 12.6496 66.7044 12.5416 66.6164 12.4056C66.5364 12.2696 66.4964 12.1256 66.4964 11.9736C66.5044 11.8216 66.5484 11.6856 66.6284 11.5656C66.7164 11.4376 66.8284 11.3496 66.9644 11.3016C67.1084 11.2456 67.2684 11.2496 67.4444 11.3136C67.7804 11.4336 68.0804 11.5216 68.3444 11.5776C68.6164 11.6256 68.8764 11.6496 69.1244 11.6496C69.4204 11.6496 69.6324 11.6096 69.7604 11.5296C69.8884 11.4416 69.9524 11.3296 69.9524 11.1936C69.9524 11.0736 69.9084 10.9816 69.8204 10.9176C69.7404 10.8536 69.6244 10.8096 69.4724 10.7856L68.1404 10.5696C67.6444 10.4816 67.2604 10.3016 66.9884 10.0296C66.7164 9.74961 66.5804 9.38561 66.5804 8.93761C66.5804 8.52161 66.6964 8.16561 66.9284 7.86961C67.1684 7.56561 67.4924 7.33361 67.9004 7.17361C68.3164 7.00561 68.7924 6.92161 69.3284 6.92161C69.6884 6.92161 70.0164 6.94961 70.3124 7.00561C70.6084 7.05361 70.8964 7.14561 71.1764 7.28161C71.3524 7.35361 71.4764 7.45761 71.5484 7.59361C71.6204 7.72961 71.6484 7.87361 71.6324 8.02561C71.6164 8.16961 71.5644 8.30561 71.4764 8.43361C71.3964 8.55361 71.2844 8.63761 71.1404 8.68561C70.9964 8.72561 70.8284 8.71361 70.6364 8.64961C70.3724 8.54561 70.1364 8.46961 69.9284 8.42161C69.7284 8.37361 69.5404 8.34961 69.3644 8.34961C69.0364 8.34961 68.8044 8.39361 68.6684 8.48161C68.5324 8.56961 68.4644 8.68161 68.4644 8.81761C68.4644 8.92161 68.5004 9.00961 68.5724 9.08161C68.6444 9.14561 68.7564 9.18961 68.9084 9.21361L70.2404 9.44161C70.7524 9.52161 71.1444 9.69761 71.4164 9.96961C71.6964 10.2336 71.8364 10.5936 71.8364 11.0496C71.8364 11.6976 71.5884 12.2016 71.0924 12.5616C70.5964 12.9136 69.9364 13.0896 69.1124 13.0896Z" fill="#6E542B"/>
</mask>
<g mask="url(#mask0_1_3)">
<path d="M6.85335 13.0896C5.88535 13.0896 5.06135 12.9096 4.38135 12.5496C3.70935 12.1896 3.19735 11.6856 2.84535 11.0376C2.49335 10.3896 2.31735 9.63361 2.31735 8.76961C2.31735 8.09761 2.42135 7.49361 2.62935 6.95761C2.84535 6.41361 3.15335 5.94961 3.55335 5.56561C3.95335 5.17361 4.44135 4.87761 5.01735 4.67761C5.60135 4.46961 6.26135 4.36561 6.99735 4.36561C7.39735 4.36561 7.80535 4.40561 8.22135 4.48561C8.63735 4.55761 9.04535 4.69761 9.44535 4.90561C9.65335 5.00161 9.79335 5.13761 9.86535 5.31361C9.94535 5.48161 9.96935 5.66161 9.93735 5.85361C9.91335 6.03761 9.84535 6.20961 9.73335 6.36961C9.62935 6.52161 9.48535 6.62561 9.30135 6.68161C9.11735 6.72961 8.90935 6.70161 8.67735 6.59761C8.43735 6.48561 8.17735 6.40161 7.89735 6.34561C7.61735 6.28161 7.32135 6.24961 7.00935 6.24961C6.47335 6.24961 6.02535 6.34561 5.66535 6.53761C5.31335 6.72961 5.04935 7.01361 4.87335 7.38961C4.69735 7.76561 4.60935 8.22561 4.60935 8.76961C4.60935 9.58561 4.80935 10.2016 5.20935 10.6176C5.60935 11.0336 6.20135 11.2416 6.98535 11.2416C7.22535 11.2416 7.48535 11.2176 7.76535 11.1696C8.05335 11.1216 8.34135 11.0536 8.62935 10.9656L8.22135 11.7936V9.74161H7.38135C7.10935 9.74161 6.89735 9.67361 6.74535 9.53761C6.60135 9.40161 6.52935 9.20961 6.52935 8.96161C6.52935 8.71361 6.60135 8.52561 6.74535 8.39761C6.89735 8.26161 7.10935 8.19361 7.38135 8.19361H9.15735C9.43735 8.19361 9.64935 8.26961 9.79335 8.42161C9.94535 8.56561 10.0213 8.77761 10.0213 9.05761V11.7096C10.0213 11.9496 9.96935 12.1536 9.86535 12.3216C9.76935 12.4896 9.61335 12.6096 9.39735 12.6816C9.02135 12.8096 8.61335 12.9096 8.17335 12.9816C7.73335 13.0536 7.29335 13.0896 6.85335 13.0896ZM13.4062 13.0896C12.9502 13.0896 12.5462 13.0056 12.1942 12.8376C11.8502 12.6696 11.5782 12.4416 11.3782 12.1536C11.1862 11.8576 11.0902 11.5216 11.0902 11.1456C11.0902 10.7136 11.2022 10.3736 11.4262 10.1256C11.6502 9.87761 12.0102 9.70161 12.5062 9.59761C13.0022 9.48561 13.6622 9.42961 14.4862 9.42961H15.1462V10.4376H14.4862C14.1742 10.4376 13.9142 10.4616 13.7062 10.5096C13.5062 10.5496 13.3582 10.6176 13.2622 10.7136C13.1662 10.8016 13.1182 10.9176 13.1182 11.0616C13.1182 11.2456 13.1822 11.3976 13.3102 11.5176C13.4462 11.6376 13.6382 11.6976 13.8862 11.6976C14.0862 11.6976 14.2622 11.6536 14.4142 11.5656C14.5742 11.4776 14.7022 11.3576 14.7982 11.2056C14.8942 11.0456 14.9422 10.8616 14.9422 10.6536V9.26161C14.9422 8.97361 14.8662 8.76961 14.7142 8.64961C14.5702 8.52961 14.3182 8.46961 13.9582 8.46961C13.7662 8.46961 13.5502 8.49361 13.3102 8.54161C13.0702 8.58161 12.8022 8.65761 12.5062 8.76961C12.2902 8.84961 12.1062 8.86161 11.9542 8.80561C11.8022 8.74961 11.6822 8.65361 11.5942 8.51761C11.5142 8.38161 11.4742 8.23361 11.4742 8.07361C11.4822 7.91361 11.5342 7.76161 11.6302 7.61761C11.7342 7.47361 11.8902 7.36161 12.0982 7.28161C12.4822 7.13761 12.8342 7.04161 13.1542 6.99361C13.4822 6.94561 13.7822 6.92161 14.0542 6.92161C14.7102 6.92161 15.2502 7.01761 15.6742 7.20961C16.1062 7.39361 16.4262 7.68161 16.6342 8.07361C16.8502 8.45761 16.9582 8.95361 16.9582 9.56161V11.9856C16.9582 12.3376 16.8742 12.6056 16.7062 12.7896C16.5382 12.9736 16.2942 13.0656 15.9742 13.0656C15.6462 13.0656 15.3942 12.9736 15.2182 12.7896C15.0502 12.6056 14.9662 12.3376 14.9662 11.9856V11.6736L15.0382 11.8416C14.9982 12.0976 14.9062 12.3176 14.7622 12.5016C14.6182 12.6856 14.4302 12.8296 14.1982 12.9336C13.9662 13.0376 13.7022 13.0896 13.4062 13.0896ZM19.2545 13.0656C18.9185 13.0656 18.6585 12.9736 18.4745 12.7896C18.2905 12.6056 18.1985 12.3376 18.1985 11.9856V8.01361C18.1985 7.66961 18.2865 7.40561 18.4625 7.22161C18.6465 7.03761 18.9065 6.94561 19.2425 6.94561C19.5785 6.94561 19.8345 7.03761 20.0105 7.22161C20.1865 7.40561 20.2745 7.66961 20.2745 8.01361V8.67361L20.1425 8.08561C20.3105 7.73361 20.5585 7.45361 20.8865 7.24561C21.2225 7.02961 21.6185 6.92161 22.0745 6.92161C22.5065 6.92161 22.8745 7.02561 23.1785 7.23361C23.4905 7.44161 23.7145 7.75761 23.8505 8.18161H23.6825C23.8665 7.78961 24.1425 7.48161 24.5105 7.25761C24.8785 7.03361 25.2865 6.92161 25.7345 6.92161C26.1985 6.92161 26.5785 7.01361 26.8745 7.19761C27.1705 7.37361 27.3905 7.65361 27.5345 8.03761C27.6865 8.41361 27.7625 8.88961 27.7625 9.46561V11.9856C27.7625 12.3376 27.6665 12.6056 27.4745 12.7896C27.2905 12.9736 27.0265 13.0656 26.6825 13.0656C26.3465 13.0656 26.0865 12.9736 25.9025 12.7896C25.7185 12.6056 25.6265 12.3376 25.6265 11.9856V9.52561C25.6265 9.18161 25.5745 8.93361 25.4705 8.78161C25.3665 8.62961 25.1945 8.55361 24.9545 8.55361C24.6585 8.55361 24.4305 8.65761 24.2705 8.86561C24.1185 9.07361 24.0425 9.36961 24.0425 9.75361V11.9856C24.0425 12.3376 23.9505 12.6056 23.7665 12.7896C23.5825 12.9736 23.3185 13.0656 22.9745 13.0656C22.6305 13.0656 22.3665 12.9736 22.1825 12.7896C21.9985 12.6056 21.9065 12.3376 21.9065 11.9856V9.52561C21.9065 9.18161 21.8545 8.93361 21.7505 8.78161C21.6465 8.62961 21.4745 8.55361 21.2345 8.55361C20.9465 8.55361 20.7225 8.65761 20.5625 8.86561C20.4105 9.07361 20.3345 9.36961 20.3345 9.75361V11.9856C20.3345 12.7056 19.9745 13.0656 19.2545 13.0656ZM32.2186 13.0896C31.4986 13.0896 30.8746 12.9656 30.3466 12.7176C29.8266 12.4616 29.4266 12.1016 29.1466 11.6376C28.8666 11.1736 28.7266 10.6256 28.7266 9.99361C28.7266 9.38561 28.8586 8.85361 29.1226 8.39761C29.3946 7.93361 29.7626 7.57361 30.2266 7.31761C30.6986 7.05361 31.2346 6.92161 31.8346 6.92161C32.2746 6.92161 32.6746 6.99361 33.0346 7.13761C33.3946 7.27361 33.7026 7.47761 33.9586 7.74961C34.2146 8.01361 34.4066 8.33361 34.5346 8.70961C34.6706 9.08561 34.7386 9.50561 34.7386 9.96961C34.7386 10.1296 34.6946 10.2496 34.6066 10.3296C34.5186 10.4016 34.3786 10.4376 34.1866 10.4376H30.5146V9.42961H33.1786L32.9866 9.58561C32.9866 9.28961 32.9466 9.04961 32.8666 8.86561C32.7866 8.68161 32.6666 8.54161 32.5066 8.44561C32.3546 8.34961 32.1626 8.30161 31.9306 8.30161C31.6826 8.30161 31.4666 8.36161 31.2826 8.48161C31.1066 8.59361 30.9706 8.76161 30.8746 8.98561C30.7786 9.20961 30.7306 9.48961 30.7306 9.82561V9.93361C30.7306 10.5016 30.8546 10.9096 31.1026 11.1576C31.3586 11.3976 31.7506 11.5176 32.2786 11.5176C32.4546 11.5176 32.6546 11.4976 32.8786 11.4576C33.1106 11.4096 33.3306 11.3456 33.5386 11.2656C33.7466 11.1856 33.9266 11.1736 34.0786 11.2296C34.2306 11.2776 34.3466 11.3656 34.4266 11.4936C34.5146 11.6136 34.5626 11.7536 34.5706 11.9136C34.5786 12.0656 34.5426 12.2176 34.4626 12.3696C34.3826 12.5136 34.2506 12.6256 34.0666 12.7056C33.7866 12.8336 33.4866 12.9296 33.1666 12.9936C32.8546 13.0576 32.5386 13.0896 32.2186 13.0896ZM40.1229 13.0896C39.1549 13.0896 38.3309 12.9096 37.6509 12.5496C36.9789 12.1896 36.4669 11.6856 36.1149 11.0376C35.7629 10.3896 35.5869 9.63361 35.5869 8.76961C35.5869 8.09761 35.6909 7.49361 35.8989 6.95761C36.1149 6.41361 36.4229 5.94961 36.8229 5.56561C37.2229 5.17361 37.7109 4.87761 38.2869 4.67761C38.8709 4.46961 39.5309 4.36561 40.2669 4.36561C40.6669 4.36561 41.0749 4.40561 41.4909 4.48561C41.9069 4.55761 42.3149 4.69761 42.7149 4.90561C42.9229 5.00161 43.0629 5.13761 43.1349 5.31361C43.2149 5.48161 43.2389 5.66161 43.2069 5.85361C43.1829 6.03761 43.1149 6.20961 43.0029 6.36961C42.8989 6.52161 42.7549 6.62561 42.5709 6.68161C42.3869 6.72961 42.1789 6.70161 41.9469 6.59761C41.7069 6.48561 41.4469 6.40161 41.1669 6.34561C40.8869 6.28161 40.5909 6.24961 40.2789 6.24961C39.7429 6.24961 39.2949 6.34561 38.9349 6.53761C38.5829 6.72961 38.3189 7.01361 38.1429 7.38961C37.9669 7.76561 37.8789 8.22561 37.8789 8.76961C37.8789 9.58561 38.0789 10.2016 38.4789 10.6176C38.8789 11.0336 39.4709 11.2416 40.2549 11.2416C40.4949 11.2416 40.7549 11.2176 41.0349 11.1696C41.3229 11.1216 41.6109 11.0536 41.8989 10.9656L41.4909 11.7936V9.74161H40.6509C40.3789 9.74161 40.1669 9.67361 40.0149 9.53761C39.8709 9.40161 39.7989 9.20961 39.7989 8.96161C39.7989 8.71361 39.8709 8.52561 40.0149 8.39761C40.1669 8.26161 40.3789 8.19361 40.6509 8.19361H42.4269C42.7069 8.19361 42.9189 8.26961 43.0629 8.42161C43.2149 8.56561 43.2909 8.77761 43.2909 9.05761V11.7096C43.2909 11.9496 43.2389 12.1536 43.1349 12.3216C43.0389 12.4896 42.8829 12.6096 42.6669 12.6816C42.2909 12.8096 41.8829 12.9096 41.4429 12.9816C41.0029 13.0536 40.5629 13.0896 40.1229 13.0896ZM46.8317 13.0896C46.3197 13.0896 45.8997 12.9976 45.5717 12.8136C45.2437 12.6216 44.9957 12.3376 44.8277 11.9616C44.6677 11.5856 44.5877 11.1096 44.5877 10.5336V8.01361C44.5877 7.66161 44.6797 7.39761 44.8637 7.22161C45.0477 7.03761 45.3117 6.94561 45.6557 6.94561C45.9997 6.94561 46.2637 7.03761 46.4477 7.22161C46.6317 7.39761 46.7237 7.66161 46.7237 8.01361V10.5936C46.7237 10.8816 46.7837 11.0976 46.9037 11.2416C47.0237 11.3856 47.2117 11.4576 47.4677 11.4576C47.7557 11.4576 47.9917 11.3536 48.1757 11.1456C48.3597 10.9376 48.4517 10.6616 48.4517 10.3176V8.01361C48.4517 7.66161 48.5437 7.39761 48.7277 7.22161C48.9117 7.03761 49.1757 6.94561 49.5197 6.94561C49.8637 6.94561 50.1277 7.03761 50.3117 7.22161C50.4957 7.39761 50.5877 7.66161 50.5877 8.01361V11.9856C50.5877 12.7056 50.2437 13.0656 49.5557 13.0656C49.2197 13.0656 48.9597 12.9736 48.7757 12.7896C48.5917 12.6056 48.4997 12.3376 48.4997 11.9856V11.2896L48.6917 11.8776C48.5157 12.2696 48.2677 12.5696 47.9477 12.7776C47.6357 12.9856 47.2637 13.0896 46.8317 13.0896ZM52.8868 13.0656C52.5508 13.0656 52.2908 12.9656 52.1068 12.7656C51.9228 12.5656 51.8308 12.2776 51.8308 11.9016V8.10961C51.8308 7.73361 51.9228 7.44561 52.1068 7.24561C52.2908 7.04561 52.5508 6.94561 52.8868 6.94561C53.2308 6.94561 53.4948 7.04561 53.6788 7.24561C53.8708 7.44561 53.9668 7.73361 53.9668 8.10961V11.9016C53.9668 12.2776 53.8748 12.5656 53.6908 12.7656C53.5068 12.9656 53.2388 13.0656 52.8868 13.0656ZM52.8868 6.09361C52.5108 6.09361 52.2188 6.00561 52.0108 5.82961C51.8108 5.65361 51.7108 5.39761 51.7108 5.06161C51.7108 4.73361 51.8108 4.48161 52.0108 4.30561C52.2188 4.12961 52.5108 4.04161 52.8868 4.04161C53.2788 4.04161 53.5748 4.12961 53.7748 4.30561C53.9748 4.48161 54.0748 4.73361 54.0748 5.06161C54.0748 5.39761 53.9748 5.65361 53.7748 5.82961C53.5748 6.00561 53.2788 6.09361 52.8868 6.09361ZM57.4498 13.0896C56.6818 13.0896 56.1138 12.8856 55.7458 12.4776C55.3858 12.0616 55.2058 11.4376 55.2058 10.6056V5.46961C55.2058 5.11761 55.2978 4.84961 55.4818 4.66561C55.6658 4.48161 55.9258 4.38961 56.2618 4.38961C56.6058 4.38961 56.8698 4.48161 57.0538 4.66561C57.2458 4.84961 57.3418 5.11761 57.3418 5.46961V10.5336C57.3418 10.8296 57.3978 11.0456 57.5098 11.1816C57.6298 11.3176 57.7818 11.3856 57.9658 11.3856C58.0218 11.3856 58.0778 11.3816 58.1338 11.3736C58.1978 11.3576 58.2658 11.3456 58.3378 11.3376C58.4738 11.3376 58.5738 11.3896 58.6378 11.4936C58.7098 11.5976 58.7458 11.8096 58.7458 12.1296C58.7458 12.4096 58.6898 12.6216 58.5778 12.7656C58.4658 12.9016 58.2938 12.9896 58.0618 13.0296C57.9978 13.0376 57.9058 13.0496 57.7858 13.0656C57.6658 13.0816 57.5538 13.0896 57.4498 13.0896ZM61.623 13.0896C61.119 13.0896 60.671 12.9656 60.279 12.7176C59.895 12.4696 59.591 12.1136 59.367 11.6496C59.151 11.1856 59.043 10.6376 59.043 10.0056C59.043 9.35761 59.151 8.80561 59.367 8.34961C59.591 7.89361 59.895 7.54161 60.279 7.29361C60.671 7.04561 61.119 6.92161 61.623 6.92161C62.063 6.92161 62.459 7.02561 62.811 7.23361C63.163 7.44161 63.399 7.70961 63.519 8.03761H63.387V5.46961C63.387 5.11761 63.479 4.84961 63.663 4.66561C63.847 4.48161 64.111 4.38961 64.455 4.38961C64.791 4.38961 65.051 4.48161 65.235 4.66561C65.427 4.84961 65.523 5.11761 65.523 5.46961V11.9856C65.523 12.3376 65.431 12.6056 65.247 12.7896C65.071 12.9736 64.811 13.0656 64.467 13.0656C64.131 13.0656 63.871 12.9736 63.687 12.7896C63.503 12.6056 63.411 12.3376 63.411 11.9856V11.3016L63.543 11.8896C63.431 12.2496 63.195 12.5416 62.835 12.7656C62.483 12.9816 62.079 13.0896 61.623 13.0896ZM62.307 11.5176C62.523 11.5176 62.715 11.4656 62.883 11.3616C63.051 11.2496 63.179 11.0856 63.267 10.8696C63.363 10.6456 63.411 10.3576 63.411 10.0056C63.411 9.46961 63.307 9.08561 63.099 8.85361C62.891 8.61361 62.627 8.49361 62.307 8.49361C62.091 8.49361 61.899 8.54561 61.731 8.64961C61.563 8.75361 61.431 8.91761 61.335 9.14161C61.239 9.35761 61.191 9.64561 61.191 10.0056C61.191 10.5336 61.295 10.9176 61.503 11.1576C61.711 11.3976 61.979 11.5176 62.307 11.5176ZM69.1124 13.0896C68.7604 13.0896 68.4004 13.0616 68.0324 13.0056C67.6724 12.9576 67.3444 12.8656 67.0484 12.7296C66.8484 12.6496 66.7044 12.5416 66.6164 12.4056C66.5364 12.2696 66.4964 12.1256 66.4964 11.9736C66.5044 11.8216 66.5484 11.6856 66.6284 11.5656C66.7164 11.4376 66.8284 11.3496 66.9644 11.3016C67.1084 11.2456 67.2684 11.2496 67.4444 11.3136C67.7804 11.4336 68.0804 11.5216 68.3444 11.5776C68.6164 11.6256 68.8764 11.6496 69.1244 11.6496C69.4204 11.6496 69.6324 11.6096 69.7604 11.5296C69.8884 11.4416 69.9524 11.3296 69.9524 11.1936C69.9524 11.0736 69.9084 10.9816 69.8204 10.9176C69.7404 10.8536 69.6244 10.8096 69.4724 10.7856L68.1404 10.5696C67.6444 10.4816 67.2604 10.3016 66.9884 10.0296C66.7164 9.74961 66.5804 9.38561 66.5804 8.93761C66.5804 8.52161 66.6964 8.16561 66.9284 7.86961C67.1684 7.56561 67.4924 7.33361 67.9004 7.17361C68.3164 7.00561 68.7924 6.92161 69.3284 6.92161C69.6884 6.92161 70.0164 6.94961 70.3124 7.00561C70.6084 7.05361 70.8964 7.14561 71.1764 7.28161C71.3524 7.35361 71.4764 7.45761 71.5484 7.59361C71.6204 7.72961 71.6484 7.87361 71.6324 8.02561C71.6164 8.16961 71.5644 8.30561 71.4764 8.43361C71.3964 8.55361 71.2844 8.63761 71.1404 8.68561C70.9964 8.72561 70.8284 8.71361 70.6364 8.64961C70.3724 8.54561 70.1364 8.46961 69.9284 8.42161C69.7284 8.37361 69.5404 8.34961 69.3644 8.34961C69.0364 8.34961 68.8044 8.39361 68.6684 8.48161C68.5324 8.56961 68.4644 8.68161 68.4644 8.81761C68.4644 8.92161 68.5004 9.00961 68.5724 9.08161C68.6444 9.14561 68.7564 9.18961 68.9084 9.21361L70.2404 9.44161C70.7524 9.52161 71.1444 9.69761 71.4164 9.96961C71.6964 10.2336 71.8364 10.5936 71.8364 11.0496C71.8364 11.6976 71.5884 12.2016 71.0924 12.5616C70.5964 12.9136 69.9364 13.0896 69.1124 13.0896Z" fill="#6E542B"/>
<path d="M54.7009 13.5335V4.10726L57.6365 4.61897L57.8251 10.6787L58.7677 12.1061L58.5522 14.0721L54.7009 13.5335Z" fill="url(#paint0_linear_1_3)"/>
<path d="M56.3014 10.6931V4.23504L57.836 4.53406L58.682 11.1513L59.0781 12.251C59.0781 12.251 57.9506 12.4992 57.3036 12.251C57.0988 12.1725 56.972 12.1343 56.8053 11.9917C56.6212 11.8342 56.5495 11.704 56.4494 11.4833C56.3198 11.1974 56.3014 11.0071 56.3014 10.6931Z" fill="url(#paint1_linear_1_3)"/>
<path d="M57.9165 12.3725L58.6435 11.3715L59.1679 12.1938L58.6435 13.0637L57.9165 12.3725Z" fill="#36260C"/>
<path d="M1.52273 12.9771L1.27062 3.58511L9.17768 3.32683L11.0112 6.00356L10.6216 12.6015L8.3526 14.4329L1.52273 12.9771Z" fill="url(#paint2_linear_1_3)"/>
<path d="M8.8364 6.96749L9.09772 5.79555C9.09772 5.79555 8.55159 5.59249 8.19031 5.50198C7.78215 5.39972 7.54826 5.34587 7.12825 5.32044C6.47669 5.28099 6.07267 5.25942 5.46665 5.50198C4.96447 5.70298 4.69613 5.89407 4.32752 6.28995C3.90621 6.74243 3.73656 7.08344 3.56523 7.67747C3.38888 8.28895 3.38939 8.67484 3.47959 9.30481C3.56894 9.92891 3.65653 10.3077 4.01061 10.8294C4.34321 11.3194 4.6165 11.5654 5.14119 11.84C5.69116 12.1279 6.07235 12.1458 6.69144 12.1912C7.40211 12.2433 7.81618 12.1852 8.50721 12.0113C8.73091 11.955 9.0725 11.84 9.0725 11.84V10.2041V9.07356H7.33381L6.69144 9.78445L7.77063 10.3069L7.51368 10.8122L5.76643 10.3583L4.87567 9.14208L5.05554 8.02864L5.8949 6.8638L7.33381 6.80385L8.8364 6.96749Z" fill="url(#paint3_linear_1_3)"/>
<path d="M9.90597 5.21152L9.09738 5.80527L8.83175 6.84433L9.738 6.73886L10.1286 5.95371L9.90597 5.21152Z" fill="#3E2E10"/>
<path d="M6.6548 9.84822L7.33289 9.07744L6.93775 8.07249L6.25477 8.55057L6.6548 9.84822Z" fill="#7E6130"/>
<path d="M12.0572 9.23005L11.6687 6.88576L13.0675 6.41948L17.2769 7.37793L17.1474 11.5355L14.816 13.0963V9.23005L14.1943 8.81559L12.0572 9.23005Z" fill="url(#paint4_linear_1_3)"/>
<path d="M17.07 12.8834L15.9646 12.0084V8.90292C15.9646 8.78574 15.8621 8.55621 15.7263 8.37558C15.5589 8.15293 15.4071 8.07032 15.1599 7.94199C14.8675 7.79023 14.675 7.74978 14.3474 7.71542C14.0374 7.68292 13.8597 7.71918 13.5505 7.75839C13.284 7.7922 13.1373 7.83049 12.8747 7.8873C12.5583 7.95576 12.07 8.08652 12.07 8.08652L11.4997 7.56699L11.6603 7.31471L13.618 6.5459L15.9086 6.78367L17.07 7.84574L17.145 10.1601L17.07 12.8834Z" fill="url(#paint5_linear_1_3)"/>
<path d="M13.9816 13.9022L14.9724 12.1725L14.9411 10.4459V9.3873L13.2852 9.11427L10.9899 9.44395L10.6727 12.0689L13.9816 13.9022Z" fill="url(#paint6_linear_1_3)"/>
<path d="M13.4565 10.0439C13.8122 10.0006 14.9442 10.0439 14.9442 10.0439L14.9646 11.6803C14.9646 11.6803 14.7937 11.9831 14.6068 12.1381C14.3768 12.3289 14.0349 12.3834 13.8891 12.4036C13.7433 12.4238 13.434 12.4605 13.1517 12.4036L13.141 12.4014C12.8787 12.3485 12.7078 12.314 12.5028 12.1381C12.2539 11.9245 12.1636 11.7159 12.1193 11.3909C12.0794 11.0976 12.1057 10.9037 12.2471 10.6437C12.499 10.1806 13.1007 10.0873 13.4565 10.0439Z" fill="url(#paint7_linear_1_3)"/>
<path d="M12.0757 8.08521L11.5036 7.56308L11.2536 8.66196L12.1248 8.98715L12.0757 8.08521Z" fill="#5E461D"/>
<path d="M15.9655 11.9999L15.0968 12.7671L15.1871 13.0604L16.4619 13.2748L16.8681 12.7107L15.9655 11.9999Z" fill="#493616"/>
<path d="M19.1471 13.9393L19.0486 6.41758L20.5013 6.61455L20.8829 12.2774L19.1471 13.9393Z" fill="url(#paint8_linear_1_3)"/>
<path d="M22.9803 9.38547L23.785 7.98313L24.3672 6.59765L28.0162 6.98861L28.2189 11.9842L26.7419 14.0548L22.9803 9.38547Z" fill="url(#paint9_linear_1_3)"/>
<path d="M19.2614 13.5291L19.2614 6.51431L18.1761 6.95108L17.7922 9.12171L17.7922 12.2718L19.2614 13.5291Z" fill="url(#paint10_linear_1_3)"/>
<path d="M23.6091 8.62251C23.3279 8.88359 22.9803 9.37766 22.9803 9.37766L22.9147 13.3939L24.488 13.1889L24.859 13.1139L25.5317 12.8835L26.748 13.4171V8.76828C26.748 8.66672 26.6655 8.37933 26.6067 8.30863C26.4333 8.1 26.3312 7.96758 26.0888 7.84565C25.7876 7.6941 25.5681 7.68661 25.2335 7.72794C24.9245 7.76611 24.766 7.87023 24.488 8.01044C24.1146 8.1988 23.9157 8.33797 23.6091 8.62251Z" fill="url(#paint11_angular_1_3)"/>
<path d="M22.953 9.44797L23.7889 7.97141V7.56333L22.5388 6.63058L20.8553 6.97922L20.2655 7.85422L20.3163 8.47532L22.0699 8.20533L22.953 9.44797Z" fill="url(#paint12_linear_1_3)"/>
<path d="M21.0869 7.89613C20.7327 8.04194 20.3163 8.4636 20.3163 8.4636L20.3397 9.92063L20.7361 9.13207L21.5334 9.03638L21.5813 10.1368V12.9356L22.9907 13.3094C22.9907 13.3094 22.996 9.56465 22.996 9.36985C22.996 9.17504 22.9251 8.54893 22.7056 8.2709C22.4931 8.00172 22.298 7.87835 21.964 7.80044C21.6285 7.72217 21.4055 7.76497 21.0869 7.89613Z" fill="url(#paint13_linear_1_3)"/>
<path d="M19.2601 8.00665L18.1615 7.26184L19.4183 6.68462L20.2842 7.26184L19.2601 8.00665Z" fill="#684C1D"/>
<path d="M19.2612 12.0634L20.3597 12.8082L19.1029 13.3855L18.237 12.8082L19.2612 12.0634Z" fill="#443115"/>
<path d="M22.996 12.0634L24.0946 12.8082L22.8378 13.3855L21.9719 12.8082L22.996 12.0634Z" fill="#443115"/>
<path d="M26.7518 12.0634L27.8504 12.8082L26.5935 13.3855L25.7277 12.8082L26.7518 12.0634Z" fill="#443115"/>
<path d="M28.3771 12.9609V6.35711L30.0733 6.06068L34.915 7.16406L35.1621 11.2317L34.5857 13.4385L28.3771 12.9609Z" fill="url(#paint14_angular_1_3)"/>
<path d="M33.9905 9.94161H30.6954L30.7733 10.4402L31.4 10.9156L32.602 11.0814L34.146 10.9156L34.7262 11.527C34.7262 11.527 33.9176 11.9972 33.3481 12.1591C32.895 12.2879 32.6275 12.3451 32.1564 12.3456C31.769 12.346 31.5365 12.3529 31.172 12.2213C30.7741 12.0776 30.5518 11.9364 30.2705 11.6203C29.9014 11.2054 29.8093 10.8542 29.7317 10.3043C29.6643 9.82609 29.667 9.52756 29.825 9.0712C29.9514 8.7059 30.0573 8.49278 30.3327 8.2215C30.7068 7.85297 31.0354 7.73497 31.5554 7.66195C32.053 7.59208 32.383 7.60857 32.83 7.83811C33.273 8.06561 33.476 8.3211 33.7108 8.76033C33.9342 9.17845 33.9905 9.94161 33.9905 9.94161Z" fill="url(#paint15_linear_1_3)"/>
<path d="M33.8695 11.9714V11.118L34.231 11.1606L34.6704 11.5504L34.5428 12.4151L33.8695 11.9714Z" fill="#493616"/>
<path d="M35.3057 13.6679V3.56106L43.7533 3.74208V13.6679H35.3057Z" fill="url(#paint16_linear_1_3)"/>
<path d="M42.35 9.02975H39.5901L38.6945 8.59109L39.9556 7.11057L42.7156 7.29335L43.4102 6.39773C43.4102 6.39773 42.9992 6.09892 42.7156 5.94079C42.3219 5.72121 42.086 5.61775 41.6555 5.48384C41.1635 5.3308 40.8728 5.25858 40.3578 5.24622C39.8833 5.23484 39.6087 5.26555 39.1514 5.39245C38.659 5.52909 38.3702 5.63155 37.9633 5.94079C37.4394 6.33905 37.2054 6.68348 36.9581 7.29335C36.7353 7.84252 36.7063 8.19969 36.7204 8.79214C36.7371 9.48964 36.8097 9.91443 37.1408 10.5285C37.5145 11.2216 38.1515 11.7071 38.5859 11.8958C39.0203 12.0846 39.8026 12.2026 40.5954 12.137C41.2976 12.0789 42.35 11.7166 42.35 11.7166V9.02975Z" fill="url(#paint17_linear_1_3)"/>
<path d="M42.2605 5.70915L43.1561 5.2004L43.4582 5.93703L43.278 6.66306L42.4036 6.91214L42.2605 5.70915Z" fill="#33270E"/>
<path d="M40.496 9.03782L40.078 8.16672L39.3671 9.17063L40.1171 9.87766L40.496 9.03782Z" fill="#6E542B"/>
<path d="M49.3085 13.8394V6.09355L51.0843 6.4714V13.8394H49.3085Z" fill="url(#paint18_linear_1_3)"/>
<path d="M49.5412 13.8614V6.69324H48.4524L47.9261 8.88906L48.3616 13.0901L49.5412 13.8614Z" fill="url(#paint19_linear_1_3)"/>
<path d="M48.5527 13.1875L48.4366 10.318L46.7083 6.4828L44.939 6.05634L44.195 8.0979L44.3583 12.2264L45.7468 13.573L48.5527 13.1875Z" fill="url(#paint20_linear_1_3)"/>
<path d="M45.6648 11.0244V6.73777L46.7512 7.0144L48.444 10.0359L48.4828 11.5432C48.4828 11.5432 48.1365 11.8908 47.8641 12.0371C47.5885 12.1851 47.448 12.293 47.1374 12.3308C46.9373 12.3551 46.7793 12.3348 46.585 12.2812C46.3365 12.2126 46.2189 12.0911 46.0463 11.8997C45.7967 11.6227 45.6648 11.2902 45.6648 11.0244Z" fill="url(#paint21_linear_1_3)"/>
<path d="M49.5394 11.9739L50.638 12.7187L49.3811 13.2959L48.5153 12.7187L49.5394 11.9739Z" fill="#443115"/>
<path d="M45.6642 8.00665L44.5656 7.26184L45.8225 6.68462L46.6883 7.26184L45.6642 8.00665Z" fill="#684C1D"/>
<path d="M49.5442 8.00665L48.4456 7.26184L49.7025 6.68462L50.5684 7.26184L49.5442 8.00665Z" fill="#684C1D"/>
<path d="M51.5402 13.3402V6.83639L54.3797 6.8953L54.4976 13.3402H51.5402Z" fill="url(#paint22_linear_1_3)"/>
<path d="M52.9188 13.4698V6.77748L54.368 6.966V12.8218L52.9188 13.4698Z" fill="url(#paint23_linear_1_3)"/>
<path d="M51.5017 6.24926L51.3772 3.7168L54.3456 3.82059V6.24926H51.5017Z" fill="url(#paint24_angular_1_3)"/>
<ellipse cx="52.8975" cy="5.04466" rx="0.434151" ry="0.416334" fill="#5B431D"/>
<path d="M52.9172 8.00665L51.8186 7.26184L53.0755 6.68462L53.9413 7.26184L52.9172 8.00665Z" fill="#684C1D"/>
<path d="M52.9223 11.9739L54.0209 12.7187L52.764 13.2959L51.8982 12.7187L52.9223 11.9739Z" fill="#443115"/>
<path d="M64.3513 13.5721V4.00209H65.9974V13.5721H64.3513Z" fill="url(#paint25_linear_1_3)"/>
<path d="M64.4362 13.4934V3.97641L62.3867 4.26049L62.5287 13.7166L64.4362 13.4934Z" fill="url(#paint26_linear_1_3)"/>
<path d="M63.4246 12.4963L63.3815 7.70444L62.471 6.65192L59.7019 6.9301L58.5259 9.77507L59.8662 13.1132L62.1043 13.5052L63.4246 12.4963Z" fill="url(#paint27_linear_1_3)"/>
<path d="M62.3504 7.83433C62.7986 7.97716 63.3937 8.43679 63.3937 8.43679L63.4304 11.552C63.4304 11.552 63.1359 11.8368 63.0623 11.8894C62.9888 11.9419 62.6093 12.14 62.2842 12.1985C62.0071 12.2484 61.842 12.2814 61.5642 12.2352C61.2598 12.1847 61.0841 12.1113 60.8369 11.9267C60.5204 11.6904 60.412 11.4635 60.2491 11.1038C60.0136 10.5837 59.9825 10.2241 60.0434 9.65641C60.1026 9.1041 60.1702 8.74393 60.5283 8.31924C60.8022 7.99431 61.0082 7.78693 61.4246 7.70208C61.7825 7.62918 62.0024 7.72347 62.3504 7.83433Z" fill="url(#paint28_linear_1_3)"/>
<path d="M64.4336 11.9739L65.5322 12.7187L64.2753 13.2959L63.4095 12.7187L64.4336 11.9739Z" fill="#443115"/>
<path d="M56.2991 5.54168L55.2005 4.79687L56.2239 3.96589L57.3232 4.79687L56.2991 5.54168Z" fill="#684C1D"/>
<path d="M66.0921 12.8046V5.60114L72.5471 6.81731L72.781 12.1731L70.4188 13.7401L66.0921 12.8046Z" fill="url(#paint29_linear_1_3)"/>
<path d="M70.4656 7.84637C70.9625 7.97069 71.6818 8.33751 71.6818 8.33751V6.74714L66.3727 6.13906L66.0219 11.5182C66.0219 11.5182 66.7667 11.8472 67.2615 12.0094L67.2707 12.0124C67.5809 12.1141 67.7585 12.1724 68.08 12.2433C68.4408 12.3228 68.6461 12.388 69.0155 12.3836C69.3579 12.3795 69.5565 12.3528 69.8809 12.2433C70.2373 12.1229 70.5031 12.0808 70.7229 11.7755C70.8646 11.5785 70.9366 11.4335 70.9333 11.1908C70.9302 10.9567 70.8647 10.8158 70.7229 10.6295C70.5967 10.4638 70.4833 10.4044 70.3019 10.3021C69.997 10.1301 69.7756 10.1552 69.4365 10.0682C69.0997 9.98174 68.9032 9.96114 68.5712 9.85771C68.2732 9.76489 68.0436 9.79765 67.8228 9.57706C67.6377 9.39223 67.5685 9.22919 67.5421 8.96898C67.5166 8.71765 67.5536 8.5548 67.6824 8.33751C67.853 8.04982 68.0757 7.97591 68.3841 7.84637C68.7664 7.68577 69.0219 7.7048 69.4365 7.70604C69.8421 7.70725 70.0721 7.74792 70.4656 7.84637Z" fill="url(#paint30_radial_1_3)"/>
<path d="M70.8741 7.98066L71.6537 7.60999L71.7689 8.70478L70.9206 8.87029L70.8741 7.98066Z" fill="#3D2C10"/>
<path d="M67.2081 11.9985L67.0029 11.21V11.2424L66.074 11.6258L66.6194 12.598L67.2081 11.9985Z" fill="#6E542B"/>
<path d="M64.4333 5.54168L63.3347 4.79687L64.3581 3.96589L65.4574 4.79687L64.4333 5.54168Z" fill="#684C1D"/>
</g>
<defs>
<linearGradient id="paint0_linear_1_3" x1="55.331" y1="10.8327" x2="56.7343" y2="13.2306" gradientUnits="userSpaceOnUse">
<stop stop-color="#6E542B"/>
<stop offset="1" stop-color="#3D2C10"/>
</linearGradient>
<linearGradient id="paint1_linear_1_3" x1="57.0772" y1="10.6597" x2="57.6897" y2="11.7332" gradientUnits="userSpaceOnUse">
<stop stop-color="#3D2C10"/>
<stop offset="1" stop-color="#59421C"/>
</linearGradient>
<linearGradient id="paint2_linear_1_3" x1="3.86508" y1="4.8744" x2="9.75318" y2="13.6858" gradientUnits="userSpaceOnUse">
<stop offset="0.476213" stop-color="#6E5429"/>
<stop offset="1" stop-color="#33260E"/>
</linearGradient>
<linearGradient id="paint3_linear_1_3" x1="3.68301" y1="4.71509" x2="5.4665" y2="13.5125" gradientUnits="userSpaceOnUse">
<stop offset="0.488134" stop-color="#493616"/>
<stop offset="1" stop-color="#6E5429"/>
</linearGradient>
<linearGradient id="paint4_linear_1_3" x1="14.8778" y1="9.93728" x2="13.9933" y2="8.07981" gradientUnits="userSpaceOnUse">
<stop stop-color="#6E5429"/>
<stop offset="1" stop-color="#3D2C12"/>
</linearGradient>
<linearGradient id="paint5_linear_1_3" x1="11.939" y1="6.64667" x2="17.2666" y2="10.7023" gradientUnits="userSpaceOnUse">
<stop stop-color="#6E5429"/>
<stop offset="1" stop-color="#3D2C12"/>
</linearGradient>
<linearGradient id="paint6_linear_1_3" x1="12.6567" y1="9.24933" x2="14.621" y2="13.2678" gradientUnits="userSpaceOnUse">
<stop offset="0.317722" stop-color="#6E5429"/>
<stop offset="1" stop-color="#33260E"/>
</linearGradient>
<linearGradient id="paint7_linear_1_3" x1="13.8002" y1="10.4536" x2="14.9646" y2="11.9319" gradientUnits="userSpaceOnUse">
<stop stop-color="#453415"/>
<stop offset="1" stop-color="#6E5429"/>
</linearGradient>
<linearGradient id="paint8_linear_1_3" x1="19.9658" y1="8.16712" x2="19.9658" y2="12.2355" gradientUnits="userSpaceOnUse">
<stop stop-color="#493616"/>
<stop offset="1" stop-color="#3D2C12"/>
</linearGradient>
<linearGradient id="paint9_linear_1_3" x1="24.6625" y1="10.7055" x2="24.9784" y2="7.3364" gradientUnits="userSpaceOnUse">
<stop stop-color="#3D2D10"/>
<stop offset="1" stop-color="#6E5429"/>
</linearGradient>
<linearGradient id="paint10_linear_1_3" x1="18.4278" y1="7.58647" x2="18.5268" y2="14.7736" gradientUnits="userSpaceOnUse">
<stop stop-color="#6E5429"/>
<stop offset="1" stop-color="#493616"/>
</linearGradient>
<radialGradient id="paint11_angular_1_3" cx="0" cy="0" r="1" gradientUnits="userSpaceOnUse" gradientTransform="translate(24.8313 10.9463) rotate(-78.4864) scale(2.30295 1.59027)">
<stop offset="0.0910577" stop-color="#6D5227"/>
<stop offset="0.28225" stop-color="#493616"/>
<stop offset="0.58794" stop-color="#493616"/>
<stop offset="0.713656" stop-color="#493616"/>
<stop offset="0.806329" stop-color="#493616"/>
</radialGradient>
<linearGradient id="paint12_linear_1_3" x1="20.7422" y1="7.17694" x2="23.3078" y2="8.03928" gradientUnits="userSpaceOnUse">
<stop stop-color="#6E5429"/>
<stop offset="1" stop-color="#493616"/>
</linearGradient>
<linearGradient id="paint13_linear_1_3" x1="21.1072" y1="8.28717" x2="22.5374" y2="13.6333" gradientUnits="userSpaceOnUse">
<stop stop-color="#493616"/>
<stop offset="0.263722" stop-color="#6D5227"/>
<stop offset="0.454117" stop-color="#6D5227"/>
<stop offset="1" stop-color="#493616"/>
</linearGradient>
<radialGradient id="paint14_angular_1_3" cx="0" cy="0" r="1" gradientUnits="userSpaceOnUse" gradientTransform="translate(30.6805 9.74959) rotate(35.9844) scale(3.03083 2.45647)">
<stop offset="0.332409" stop-color="#6E542B"/>
<stop offset="0.651023" stop-color="#6E542B"/>
<stop offset="0.996131" stop-color="#33270E"/>
</radialGradient>
<linearGradient id="paint15_linear_1_3" x1="33.8109" y1="11.012" x2="30.521" y2="8.63927" gradientUnits="userSpaceOnUse">
<stop stop-color="#6E542B"/>
<stop offset="1" stop-color="#493616"/>
</linearGradient>
<linearGradient id="paint16_linear_1_3" x1="36.4527" y1="5.18018" x2="42.1182" y2="14.5585" gradientUnits="userSpaceOnUse">
<stop offset="0.388421" stop-color="#6E542B"/>
<stop offset="0.858896" stop-color="#33270E"/>
</linearGradient>
<linearGradient id="paint17_linear_1_3" x1="41.6119" y1="12.2923" x2="38.7912" y2="6.77137" gradientUnits="userSpaceOnUse">
<stop stop-color="#6E542B"/>
<stop offset="1" stop-color="#3D2C10"/>
</linearGradient>
<linearGradient id="paint18_linear_1_3" x1="50.5647" y1="13.4724" x2="50.0577" y2="7.38768" gradientUnits="userSpaceOnUse">
<stop stop-color="#33270E"/>
<stop offset="1" stop-color="#493616"/>
</linearGradient>
<linearGradient id="paint19_linear_1_3" x1="48.5075" y1="7.3732" x2="49.3043" y2="13.8614" gradientUnits="userSpaceOnUse">
<stop stop-color="#6E542B"/>
<stop offset="1" stop-color="#493616"/>
</linearGradient>
<linearGradient id="paint20_linear_1_3" x1="45.0034" y1="9.68237" x2="47.4446" y2="13.0218" gradientUnits="userSpaceOnUse">
<stop stop-color="#6E542B"/>
<stop offset="1" stop-color="#33270E"/>
</linearGradient>
<linearGradient id="paint21_linear_1_3" x1="45.51" y1="9.10661" x2="48.1125" y2="12.8375" gradientUnits="userSpaceOnUse">
<stop stop-color="#3D2C10"/>
<stop offset="1" stop-color="#6E542B"/>
</linearGradient>
<linearGradient id="paint22_linear_1_3" x1="52.9334" y1="6.83639" x2="52.9222" y2="13.3402" gradientUnits="userSpaceOnUse">
<stop stop-color="#6E542B"/>
<stop offset="1" stop-color="#493616"/>
</linearGradient>
<linearGradient id="paint23_linear_1_3" x1="53.5499" y1="6.63508" x2="53.6434" y2="13.4698" gradientUnits="userSpaceOnUse">
<stop stop-color="#493616"/>
<stop offset="1" stop-color="#33270E"/>
</linearGradient>
<radialGradient id="paint24_angular_1_3" cx="0" cy="0" r="1" gradientUnits="userSpaceOnUse" gradientTransform="translate(52.8614 4.98303) rotate(90) scale(1.06437 1.24758)">
<stop offset="0.376833" stop-color="#6E542B"/>
<stop offset="0.904088" stop-color="#493616"/>
</radialGradient>
<linearGradient id="paint25_linear_1_3" x1="65.1743" y1="4.00209" x2="65.607" y2="14.8767" gradientUnits="userSpaceOnUse">
<stop stop-color="#493616"/>
<stop offset="1" stop-color="#33270E"/>
</linearGradient>
<linearGradient id="paint26_linear_1_3" x1="63.4114" y1="3.97641" x2="63.6178" y2="14.1635" gradientUnits="userSpaceOnUse">
<stop stop-color="#6E542B"/>
<stop offset="1" stop-color="#493616"/>
</linearGradient>
<linearGradient id="paint27_linear_1_3" x1="59.2913" y1="8.46006" x2="63.1384" y2="12.6278" gradientUnits="userSpaceOnUse">
<stop stop-color="#6E542B"/>
<stop offset="1" stop-color="#33270E"/>
</linearGradient>
<linearGradient id="paint28_linear_1_3" x1="60.963" y1="9.28445" x2="62.4973" y2="11.6431" gradientUnits="userSpaceOnUse">
<stop stop-color="#3D2C10"/>
<stop offset="1" stop-color="#6E542B"/>
</linearGradient>
<linearGradient id="paint29_linear_1_3" x1="69.1391" y1="6.61566" x2="71.2733" y2="13.2555" gradientUnits="userSpaceOnUse">
<stop offset="0.14951" stop-color="#33270E"/>
<stop offset="0.456701" stop-color="#604823"/>
<stop offset="0.874476" stop-color="#33270E"/>
</linearGradient>
<radialGradient id="paint30_radial_1_3" cx="0" cy="0" r="1" gradientUnits="userSpaceOnUse" gradientTransform="translate(69.8447 9.50676) rotate(-140.807) scale(3.09305 3.97986)">
<stop stop-color="#33270E"/>
<stop offset="1" stop-color="#6E542B"/>
</radialGradient>
</defs>
</svg>
